# xmcd
#
# Track frame offsets:
# 150
# 12257
# 31370
# 49816
# 63984
# 84381
# 97809
# 112644
# 131463
# 146972
# 166335
# 183828
# 198384
# 214070
# 229018
# 242461
#
# Disc length: 3488 seconds
#
#
# Revision: 0
# Processed by: cddbd v1.5.2PL0 Copyright (c) Steve Scherf et al.
# Submitted via: FreeRIP 2.95 
#
DISCID=c90d9e10
DTITLE=Vava Machado and Leo Costa - Vava Machado and Leo Costa
DYEAR=1900
DGENRE=Acoustic
TTITLE0=a mocidade da gente
TTITLE1=ciume da prejuizo
TTITLE2=de alguem pra alguem
TTITLE3=ja fui vaqueiro
TTITLE4=memoria de quinca pedro
TTITLE5=mensagem do vaqueiro
TTITLE6=na poeira do amor
TTITLE7=o boi que ninguem pegava
TTITLE8=quem riu de mim no passado
TTITLE9=sou louco por vaquejada
TTITLE10=ser vaqueiro e desse jeito
TTITLE11=quem tem fe nao queima o pe
TTITLE12=vaqueiro e pra fazer isso
TTITLE13=vaquejada em campo grande
TTITLE14=vaqueiro nao desmunheca
TTITLE15=vaqueiro feliz
EXTD=
EXTT0=
EXTT1=
EXTT2=
EXTT3=
EXTT4=
EXTT5=
EXTT6=
EXTT7=
EXTT8=
EXTT9=
EXTT10=
EXTT11=
EXTT12=
EXTT13=
EXTT14=
EXTT15=
PLAYORDER=
